<?xml version="1.0" standalone="no"?>
<!DOCTYPE svg PUBLIC "-//W3C//DTD SVG 20010904//EN"
 "http://www.w3.org/TR/2001/REC-SVG-20010904/DTD/svg10.dtd">
<svg version="1.0" xmlns="http://www.w3.org/2000/svg"
 width="700.000000pt" height="700.000000pt" viewBox="0 0 700.000000 700.000000"
 preserveAspectRatio="xMidYMid meet">
<metadata>
Created by potrace 1.11, written by Peter Selinger 2001-2013
</metadata>
<g transform="translate(0.000000,700.000000) scale(0.100000,-0.100000)"
fill="#000000" stroke="none">
<path d="M0 3495 l0 -3495 3495 0 3495 0 0 3495 0 3495 -3495 0 -3495 0 0
-3495z m2933 2338 c8 -16 263 -683 567 -1484 l553 -1457 366 -4 c201 -3 370
-2 374 2 5 4 259 673 566 1486 l557 1479 333 3 c315 2 333 1 326 -15 -94 -232
-1115 -2936 -1115 -2954 0 -5 236 -9 560 -9 l560 0 0 -265 0 -265 -669 0 -668
0 -198 -521 c-108 -286 -212 -557 -230 -602 l-33 -82 -362 0 -362 0 -24 65
c-13 36 -109 304 -213 595 l-188 530 -1069 3 -1069 2 -214 -600 -214 -600
-334 0 c-315 0 -335 1 -328 18 3 9 196 514 427 1122 536 1410 1333 3498 1352
3544 l15 36 360 0 360 0 14 -27z"/>
<path d="M2525 5138 c-136 -364 -825 -2234 -825 -2240 0 -4 385 -8 855 -8 502
0 855 4 855 9 0 25 -264 754 -595 1641 -114 305 -216 581 -228 613 -12 31 -24
57 -28 57 -4 0 -19 -33 -34 -72z"/>
<path d="M4270 2340 c0 -23 155 -419 161 -412 6 7 159 407 159 417 0 3 -72 5
-160 5 -101 0 -160 -4 -160 -10z"/>
</g>
</svg>
