<?xml version="1.0" encoding="UTF-8" standalone="no"?>
<svg
   xmlns:dc="http://purl.org/dc/elements/1.1/"
   xmlns:cc="http://creativecommons.org/ns#"
   xmlns:rdf="http://www.w3.org/1999/02/22-rdf-syntax-ns#"
   xmlns:svg="http://www.w3.org/2000/svg"
   xmlns="http://www.w3.org/2000/svg"
   xmlns:sodipodi="http://sodipodi.sourceforge.net/DTD/sodipodi-0.dtd"
   xmlns:inkscape="http://www.inkscape.org/namespaces/inkscape"
   viewBox="0 0 41.82827 9.7941686"
   version="1.1"
   id="logoname"
   sodipodi:docname="logo.svg"
>
  <g
     id="logog3763"
     transform="translate(0.74447459,-1.2174549)">
    <path
       style="fill:#ffffff;stroke-width:0.73735839"
       id="logopath2"
       d="M -0.74447459,1.2174549 H 41.083797 V 11.011623 H -0.74447459 Z"
       inkscape:connector-curvature="0" />
    <g
       transform="matrix(1.1789237,0,0,1.1789237,2.9569748,-3.3634533)"
       id="logog3750">
      <g
         id="logog20">
        <g
           id="logog18">
          <path
             inkscape:connector-curvature="0"
             id="logopath4"
             d="M 0.2839334,10.635233 H -0.88403535 L -1.6730978,5.3657017 h 1.20312495 l 0.32421875,3.0273437 q 0.0625,0.5742188 0.0859375,1.0390625 0.28515625,-0.6445312 0.484375,-1.0390625 L 1.9167459,5.3657017 h 1.1914063 z" />
          <path
             inkscape:connector-curvature="0"
             id="logopath6"
             d="M 6.8894022,10.635233 H 5.7409647 L 5.6315897,9.3461704 h -1.78125 L 3.2409647,10.635233 H 2.0886209 L 4.8425272,5.3657017 h 1.34375 z M 5.3776834,6.0766392 q -0.0625,0.1601562 -0.1835937,0.4257812 -0.1171875,0.265625 -0.9335938,1.9765625 h 1.296875 l -0.1328125,-1.484375 -0.042969,-0.78125 z" />
          <path
             inkscape:connector-curvature="0"
             id="logopath8"
             d="M 10.326902,10.635233 9.4870584,8.4594517 8.8854959,9.0141392 8.5690897,10.635233 H 7.4167459 L 8.4401834,5.3657017 H 9.5925272 L 9.1394022,7.7055454 11.295652,5.3657017 h 1.339844 l -2.234375,2.2617187 1.285156,3.0078126 z" />
          <path
             inkscape:connector-curvature="0"
             id="logopath10"
             d="m 14.791746,10.635233 0.4375,-2.2421876 h -1.417969 l -0.4375,2.2421876 h -1.152344 l 1.023438,-5.2695313 h 1.152344 l -0.402344,2.0742187 h 1.417969 l 0.402343,-2.0742187 h 1.152344 L 15.94409,10.635233 Z" />
          <path
             id="logopath12"
             d="m 18.803465,10.713358 q -0.777344,0 -1.140625,-0.332031 -0.363282,-0.335938 -0.363282,-1.0351566 0,-0.34375 0.08594,-0.7734375 L 18.00659,5.3657017 h 1.152343 L 18.53784,8.5610142 q -0.07422,0.3710937 -0.07422,0.640625 0,0.3320312 0.132812,0.4726562 0.132813,0.1367188 0.414063,0.1367188 0.402344,0 0.644531,-0.2929688 0.242188,-0.296875 0.378906,-0.9960937 l 0.613282,-3.15625 h 1.152343 l -0.609375,3.1484375 q -0.222656,1.1171875 -0.808593,1.6601558 -0.582032,0.539063 -1.578124,0.539063 z" />
          <path
             id="logopath14"
             d="m 22.10034,10.635233 1.023437,-5.2695313 h 1.152344 l -0.851563,4.3789062 h 2.40625 l -0.171875,0.8906251 z" />
          <path
             id="logopath16"
             d="M 30.873777,10.635233 H 29.72534 L 29.615965,9.3461704 h -1.78125 L 27.22534,10.635233 h -1.152344 l 2.753906,-5.2695313 h 1.34375 z M 29.362058,6.0766392 q -0.0625,0.1601562 -0.183593,0.4257812 -0.117188,0.265625 -0.933594,1.9765625 h 1.296875 l -0.132813,-1.484375 -0.04297,-0.78125 z" />
        </g>
      </g>
    </g>
  </g>
</svg>
