<svg height="511pt" viewBox="0 1 511 511.9982" width="511pt" xmlns="http://www.w3.org/2000/svg">
	<path
style="fill: #ffffff"
	  d="m75.839844 213.332031c-13.105469-.277343-25.15625 7.132813-30.832032 18.945313-3.957031 10.554687-.863281 22.457031 7.730469 29.753906 15.574219 15.574219 50.636719 73.601562 67.832031 116.609375 11.324219 28.285156 36.164063 56.046875 55.015626 74.347656 8.105468 7.992188 12.664062 18.902344 12.644531 30.285157v3.125c0 14.136718 11.460937 25.601562 25.601562 25.601562h136.53125c14.140625 0 25.601563-11.464844 25.601563-25.601562v-26.214844c-.082032-2.167969.742187-4.277344 2.277344-5.8125 31.496093-28.796875 31.855468-76.875 31.855468-78.90625v-135.089844c.316406-18.269531-13.457031-33.71875-31.640625-35.492188-6.839843-.441406-13.652343 1.179688-19.558593 4.652344v-13.269531c0-18.851563-15.28125-34.132813-34.132813-34.132813-6.011719.035157-11.902344 1.671876-17.066406 4.742188v-98.609375c0-18.851563-15.285157-34.132813-34.136719-34.132813s-34.132812 15.28125-34.132812 34.132813v4.742187c-5.164063-3.070312-11.054688-4.707031-17.066407-4.742187-18.851562 0-34.132812 15.28125-34.132812 34.132813v162.132812c.246093 10.070312-1.125 20.117188-4.0625 29.757812-.917969 2.847657-3.246094 5.019532-6.152344 5.734376-2.734375.691406-5.636719-.070313-7.679687-2.015626-6.667969-6.355468-12.585938-13.449218-17.648438-21.144531-15.222656-22.800781-53.894531-63.53125-76.847656-63.53125zm82.773437 97.109375c6.277344 5.933594 15.15625 8.246094 23.53125 6.136719 8.539063-2.136719 15.394531-8.480469 18.179688-16.828125 3.539062-11.394531 5.21875-23.289062 4.972656-35.21875v-162.132812c0-9.425782 7.640625-17.066407 17.066406-17.066407s17.066407 7.640625 17.066407 17.066407v145.066406c0 4.710937 3.820312 8.535156 8.535156 8.535156 4.710937 0 8.53125-3.824219 8.53125-8.535156v-179.199219c0-9.425781 7.640625-17.066406 17.066406-17.066406s17.066406 7.640625 17.066406 17.066406v179.199219c0 4.710937 3.820313 8.535156 8.535156 8.535156 4.710938 0 8.535157-3.824219 8.535157-8.535156v-51.199219c0-9.425781 7.640625-17.066406 17.066406-17.066406s17.066406 7.640625 17.066406 17.066406v59.734375c0 4.710938 3.820313 8.53125 8.53125 8.53125 4.714844 0 8.535157-3.820312 8.535157-8.53125v-17.070312c-.011719-4.527344 1.792968-8.867188 5.007812-12.054688 3.507812-3.515625 8.371094-5.328125 13.320312-4.96875 9.214844 1.210938 16.03125 9.175781 15.804688 18.46875v135.089844c0 .417968-.4375 42.667968-26.308594 66.320312-5.066406 4.769532-7.90625 11.441406-7.824218 18.398438v26.214844c0 4.710937-3.820313 8.53125-8.535157 8.53125h-136.53125c-4.714843 0-8.535156-3.820313-8.535156-8.53125v-3.125c.011719-15.992188-6.414063-31.320313-17.824219-42.527344-14.457031-14.039063-40.3125-41.601563-51.046875-68.457032-16.753906-41.855468-52.90625-103.59375-71.621093-122.324218-4.0625-4.0625-5.417969-7.816406-4.035157-11.160156 3.089844-5.367188 8.878907-8.597657 15.070313-8.40625 11.832031 0 45.226562 29.796874 62.625 55.9375 5.785156 8.773437 12.550781 16.859374 20.164062 24.105468zm0 0"/>
	<path 
style="fill: #ffffff"
		d="m367.429688 366.929688c4.714843 0 8.535156-3.820313 8.535156-8.53125v-51.199219c0-4.714844-3.820313-8.535157-8.535156-8.535157-4.710938 0-8.53125 3.820313-8.53125 8.535157v51.199219c0 4.710937 3.820312 8.53125 8.53125 8.53125zm0 0"/>
	<path 
style="fill: #ffffff"
		d="m358.898438 418.132812c2.261718 0 4.433593-.902343 6.03125-2.5 6.492187-6.011718 10.441406-14.273437 11.035156-23.101562-.011719-4.605469-3.714844-8.351562-8.320313-8.414062-4.621093.015624-8.441406 3.605468-8.746093 8.21875-.640626 4.332031-2.773438 8.304687-6.035157 11.230468-2.4375 2.4375-3.167969 6.109375-1.847656 9.296875s4.429687 5.265625 7.882813 5.269531zm0 0"/>
	<path 
style="fill: #ffffff"
		d="m230.898438 477.863281h8.53125c4.714843 0 8.535156-3.820312 8.535156-8.53125 0-4.714843-3.820313-8.535156-8.535156-8.535156h-8.53125c-4.714844 0-8.535157 3.820313-8.535157 8.535156 0 4.710938 3.820313 8.53125 8.535157 8.53125zm0 0"/>
	<path 
style="fill: #ffffff"
		d="m273.5625 477.863281h59.734375c4.714844 0 8.535156-3.820312 8.535156-8.53125 0-4.714843-3.820312-8.535156-8.535156-8.535156h-59.734375c-4.710938 0-8.53125 3.820313-8.53125 8.535156 0 4.710938 3.820312 8.53125 8.53125 8.53125zm0 0"/>
	<path 
style="fill: #ffffff"
		d="m367.429688 42.664062c4.714843 0 8.535156-3.820312 8.535156-8.53125 0-4.714843-3.820313-8.535156-8.535156-8.535156h-17.066407c-4.710937 0-8.53125 3.820313-8.53125 8.535156 0 4.710938 3.820313 8.53125 8.53125 8.53125zm0 0"/>
	<path 
style="fill: #ffffff"
		d="m509.996094 28.097656-25.597656-25.597656c-3.351563-3.234375-8.671876-3.1875-11.964844.101562-3.289063 3.292969-3.335938 8.613282-.101563 11.964844l11.03125 11.03125h-81.800781c-4.710938 0-8.53125 3.820313-8.53125 8.535156 0 4.710938 3.820312 8.53125 8.53125 8.53125h81.800781l-11.03125 11.035157c-2.21875 2.140625-3.109375 5.3125-2.328125 8.296875s3.109375 5.316406 6.09375 6.09375c2.984375.78125 6.15625-.105469 8.300782-2.324219l25.597656-25.601563c3.332031-3.332031 3.332031-8.734374 0-12.066406zm0 0"/>
	<path 
style="fill: #ffffff"
		d="m40.664062 2.5c-3.332031-3.332031-8.734374-3.332031-12.066406 0l-25.601562 25.597656c-3.328125 3.332032-3.328125 8.734375 0 12.066406l25.601562 25.601563c3.347656 3.234375 8.671875 3.1875 11.960938-.105469 3.292968-3.292968 3.339844-8.613281.105468-11.960937l-11.035156-11.035157h81.800782c4.714843 0 8.535156-3.820312 8.535156-8.53125 0-4.714843-3.820313-8.535156-8.535156-8.535156h-81.800782l11.035156-11.03125c3.332032-3.335937 3.332032-8.734375 0-12.066406zm0 0"/>
	<path 
style="fill: #ffffff"
		d="m162.628906 42.664062c4.714844 0 8.535156-3.820312 8.535156-8.53125 0-4.714843-3.820312-8.535156-8.535156-8.535156h-17.066406c-4.710938 0-8.53125 3.820313-8.53125 8.535156 0 4.710938 3.820312 8.53125 8.53125 8.53125zm0 0"/>
</svg>