<?xml version="1.0" encoding="UTF-8" standalone="no"?>
<svg
   xmlns:dc="http://purl.org/dc/elements/1.1/"
   xmlns:cc="http://creativecommons.org/ns#"
   xmlns:rdf="http://www.w3.org/1999/02/22-rdf-syntax-ns#"
   xmlns:svg="http://www.w3.org/2000/svg"
   xmlns="http://www.w3.org/2000/svg"
   xmlns:sodipodi="http://sodipodi.sourceforge.net/DTD/sodipodi-0.dtd"
   xmlns:inkscape="http://www.inkscape.org/namespaces/inkscape"
   version="1.0"
   width="500.000000pt"
   height="500.000000pt"
   viewBox="0 0 500.000000 500.000000"
   preserveAspectRatio="xMidYMid meet"
   id="svg6"
   sodipodi:docname="AV.svg"
   inkscape:version="0.92.3 (2405546, 2018-03-11)"
   inkscape:export-filename="/home/andrii/Pictures/AV.svg.png"
   inkscape:export-xdpi="96"
   inkscape:export-ydpi="96">
  <metadata
     id="metadata12">
    <rdf:RDF>
      <cc:Work
         rdf:about="">
        <dc:format>image/svg+xml</dc:format>
        <dc:type
           rdf:resource="http://purl.org/dc/dcmitype/StillImage" />
      </cc:Work>
    </rdf:RDF>
  </metadata>
  <defs
     id="defs10" />
  <sodipodi:namedview
     pagecolor="#ffffff"
     bordercolor="#666666"
     borderopacity="1"
     objecttolerance="10"
     gridtolerance="10"
     guidetolerance="10"
     inkscape:pageopacity="0"
     inkscape:pageshadow="2"
     inkscape:window-width="1920"
     inkscape:window-height="1004"
     id="namedview8"
     showgrid="false"
     inkscape:zoom="0.70710678"
     inkscape:cx="-188.16796"
     inkscape:cy="272.58248"
     inkscape:window-x="0"
     inkscape:window-y="0"
     inkscape:window-maximized="1"
     inkscape:current-layer="svg6" />
  <rect
     style="fill:#000000;stroke-width:1.44337857"
     id="rect11"
     width="500.63159"
     height="499.57092"
     x="-1.0606736"
     y="0.42905843" />
  <path
     style="fill:#ffffff;fill-opacity:1;stroke:none;stroke-width:0.1234137"
     sodipodi:nodetypes="ccccccccccccccccccccscccccccccccccccccccccccccccscc"
     inkscape:connector-curvature="0"
     id="path2"
     d="m 155.50794,85.065827 c -0.74048,1.97462 -29.61928,77.627213 -64.175112,168.212873 l -62.912058,165.39363 23.543101,0.0231 24.183957,-10e-4 c 0,10e-6 7.40994,-20.28082 15.55524,-43.4826 l 15.056472,-42.33111 h 76.26966 76.39308 l 15.05647,42.57773 15.42532,43.15041 25.79417,0.002 25.79415,0.0423 4.93655,-12.58819 c 2.7151,-7.03458 10.11993,-26.41054 16.41402,-43.1948 l 11.60089,-30.6066 h 47.88452 47.7611 v -19.12929 -19.12912 h -40.10945 c -22.09105,0 -40.31373,-0.0476 -40.31373,-0.0476 0,0 16.86512,-45.86225 37.3518,-99.4238 20.36326,-53.56154 38.38166,-100.828983 39.98604,-105.148463 l 2.96193,-7.65165 H 446.27063 422.5752 L 382.58916,187.86938 342.60312,294.00517 316.06917,293.75834 289.53522,293.3881 249.30236,187.62256 209.06949,81.733607 H 183.0292 156.8655 Z m 58.4981,125.388313 c 16.78426,45.41624 30.23636,82.81059 29.86612,83.05742 -0.24683,0.24683 -28.01492,0.37024 -61.58344,0.24683 l -61.2132,-0.37024 29.86612,-80.83598 c 34.55583,-93.671 31.59391,-85.64911 32.08756,-85.03204 0.24683,0.24683 14.19258,37.64118 30.97684,82.93401 z m 110.94892,130.07804 c -1.72779,4.68972 -4.4429,11.60089 -5.92386,15.67354 l -2.7151,7.28141 -5.18338,-13.45209 c -2.83851,-7.40482 -6.44385,-17.69575 -6.44385,-17.69575 0,0 0.13913,-0.0758 11.50381,-0.0758 h 11.84772 z" />
</svg>
